<?xml version="1.0" encoding="UTF-8"?>
<!DOCTYPE svg PUBLIC "-//W3C//DTD SVG 1.1//EN" "http://www.w3.org/Graphics/SVG/1.1/DTD/svg11.dtd">
<svg xmlns="http://www.w3.org/2000/svg" version="1.1" width="400px" height="400px" style="shape-rendering:geometricPrecision; text-rendering:geometricPrecision; image-rendering:optimizeQuality; fill-rule:evenodd; clip-rule:evenodd" xmlns:xlink="http://www.w3.org/1999/xlink">
<g><path style="opacity:1" fill="#fed002" d="M -0.5,-0.5 C 132.833,-0.5 266.167,-0.5 399.5,-0.5C 399.5,132.833 399.5,266.167 399.5,399.5C 266.167,399.5 132.833,399.5 -0.5,399.5C -0.5,266.167 -0.5,132.833 -0.5,-0.5 Z"/></g>
<g><path style="opacity:1" fill="#e8c746" d="M 168.5,129.5 C 168.5,127.833 168.5,126.167 168.5,124.5C 162.463,124.171 156.463,124.504 150.5,125.5C 149.869,129.034 149.202,132.534 148.5,136C 129.662,136.829 110.995,136.662 92.5,135.5C 111.19,135.767 129.857,135.434 148.5,134.5C 148.395,130.452 148.728,126.452 149.5,122.5C 156.532,122.17 163.532,122.503 170.5,123.5C 169.777,125.164 170.11,126.831 171.5,128.5C 170.675,129.386 169.675,129.719 168.5,129.5 Z"/></g>
<g><path style="opacity:1" fill="#f0c927" d="M 217.5,270.5 C 262.67,270.832 307.67,270.499 352.5,269.5C 352.99,223.082 352.49,176.749 351,130.5C 350.097,129.299 348.931,128.465 347.5,128C 302.835,127.5 258.168,127.333 213.5,127.5C 213.5,172.167 213.5,216.833 213.5,261.5C 212.292,260.766 210.959,260.433 209.5,260.5C 210.763,215.512 210.763,170.512 209.5,125.5C 211.927,125.477 214.26,124.977 216.5,124C 258.167,123.333 299.833,123.333 341.5,124C 344.827,124.61 348.161,125.11 351.5,125.5C 352.749,128.789 354.083,132.123 355.5,135.5C 354.823,180.833 354.156,226.167 353.5,271.5C 309.97,271.175 266.47,271.508 223,272.5C 220.97,272.046 219.137,271.38 217.5,270.5 Z"/></g>
<g><path style="opacity:1" fill="#090401" d="M 352.5,269.5 C 307.137,269.818 261.803,269.485 216.5,268.5C 214.688,266.539 213.688,264.206 213.5,261.5C 213.5,216.833 213.5,172.167 213.5,127.5C 258.168,127.333 302.835,127.5 347.5,128C 348.931,128.465 350.097,129.299 351,130.5C 352.49,176.749 352.99,223.082 352.5,269.5 Z"/></g>
<g><path style="opacity:1" fill="#e1c458" d="M 73.5,124.5 C 73.5,128.5 73.5,132.5 73.5,136.5C 65.1667,136.5 56.8333,136.5 48.5,136.5C 56.3159,135.508 64.3159,135.174 72.5,135.5C 72.185,131.629 72.5184,127.962 73.5,124.5 Z"/></g>
<g><path style="opacity:1" fill="#090402" d="M 73.5,124.5 C 79.1667,124.5 84.8333,124.5 90.5,124.5C 90.6587,128.291 91.3254,131.958 92.5,135.5C 110.995,136.662 129.662,136.829 148.5,136C 149.202,132.534 149.869,129.034 150.5,125.5C 156.463,124.504 162.463,124.171 168.5,124.5C 168.5,126.167 168.5,127.833 168.5,129.5C 167.532,131.607 167.198,133.941 167.5,136.5C 175.833,136.5 184.167,136.5 192.5,136.5C 192.5,141.167 192.5,145.833 192.5,150.5C 171.5,150.5 150.5,150.5 129.5,150.5C 129.5,154.167 129.5,157.833 129.5,161.5C 149.167,161.5 168.833,161.5 188.5,161.5C 188.5,166.167 188.5,170.833 188.5,175.5C 168.833,175.5 149.167,175.5 129.5,175.5C 129.5,179.167 129.5,182.833 129.5,186.5C 149.167,186.5 168.833,186.5 188.5,186.5C 188.819,191.363 188.486,196.03 187.5,200.5C 168.167,200.5 148.833,200.5 129.5,200.5C 129.5,204.833 129.5,209.167 129.5,213.5C 150.5,213.5 171.5,213.5 192.5,213.5C 192.5,218.167 192.5,222.833 192.5,227.5C 172.822,227.167 153.155,227.5 133.5,228.5C 133.624,229.107 133.957,229.44 134.5,229.5C 141.458,237.114 149.792,242.781 159.5,246.5C 159.833,246.5 160.167,246.5 160.5,246.5C 171.22,251.348 182.553,254.348 194.5,255.5C 193.14,258.22 191.807,260.886 190.5,263.5C 189.16,266.158 187.327,268.492 185,270.5C 159.472,266.988 137.972,255.988 120.5,237.5C 115.812,242.854 110.812,247.854 105.5,252.5C 87.3981,263.309 67.7314,269.309 46.5,270.5C 47.7898,266.918 48.7898,263.251 49.5,259.5C 50.339,258.359 51.0057,257.026 51.5,255.5C 58.5295,254.181 65.5295,252.681 72.5,251C 77.1539,249.666 81.4872,247.833 85.5,245.5C 92.0522,242.727 97.7188,238.727 102.5,233.5C 104.167,232.5 105.5,231.167 106.5,229.5C 107.043,229.44 107.376,229.107 107.5,228.5C 87.8446,227.5 68.178,227.167 48.5,227.5C 48.5,222.833 48.5,218.167 48.5,213.5C 69.5,213.5 90.5,213.5 111.5,213.5C 111.5,209.167 111.5,204.833 111.5,200.5C 91.8333,200.5 72.1667,200.5 52.5,200.5C 52.5,195.833 52.5,191.167 52.5,186.5C 72.1667,186.5 91.8333,186.5 111.5,186.5C 111.5,182.833 111.5,179.167 111.5,175.5C 91.8333,175.5 72.1667,175.5 52.5,175.5C 52.5,170.833 52.5,166.167 52.5,161.5C 72.1667,161.5 91.8333,161.5 111.5,161.5C 111.5,157.833 111.5,154.167 111.5,150.5C 90.5,150.5 69.5,150.5 48.5,150.5C 48.5,145.833 48.5,141.167 48.5,136.5C 56.8333,136.5 65.1667,136.5 73.5,136.5C 73.5,132.5 73.5,128.5 73.5,124.5 Z"/></g>
<g><path style="opacity:1" fill="#f1cc3c" d="M 168.5,129.5 C 168.5,131.167 168.5,132.833 168.5,134.5C 176.833,134.5 185.167,134.5 193.5,134.5C 194.703,140.486 194.703,146.486 193.5,152.5C 173.833,152.5 154.167,152.5 134.5,152.5C 134.083,155.079 134.75,157.246 136.5,159C 136.167,159.333 135.833,159.667 135.5,160C 153.338,160.168 171.005,160.668 188.5,161.5C 168.833,161.5 149.167,161.5 129.5,161.5C 129.5,157.833 129.5,154.167 129.5,150.5C 150.5,150.5 171.5,150.5 192.5,150.5C 192.5,145.833 192.5,141.167 192.5,136.5C 184.167,136.5 175.833,136.5 167.5,136.5C 167.198,133.941 167.532,131.607 168.5,129.5 Z"/></g>
<g><path style="opacity:1" fill="#e4c546" d="M 230.5,141.5 C 265.5,141.5 300.5,141.5 335.5,141.5C 335.5,179.167 335.5,216.833 335.5,254.5C 300.5,254.5 265.5,254.5 230.5,254.5C 230.5,216.833 230.5,179.167 230.5,141.5 Z"/></g>
<g><path style="opacity:1" fill="#fcd00c" d="M 334.5,251.5 C 328.167,251.5 321.833,251.5 315.5,251.5C 315.36,249.876 316.027,248.71 317.5,248C 315.783,246.441 313.783,245.608 311.5,245.5C 311.022,242.722 312.022,240.722 314.5,239.5C 313.068,236.332 312.401,232.999 312.5,229.5C 313.415,211.847 313.748,194.18 313.5,176.5C 318.844,176.666 324.177,176.499 329.5,176C 330.097,174.938 330.43,173.772 330.5,172.5C 330.068,168.65 329.402,164.983 328.5,161.5C 323.167,161.5 317.833,161.5 312.5,161.5C 312.5,157.5 312.5,153.5 312.5,149.5C 306.833,149.5 301.167,149.5 295.5,149.5C 295.5,153.5 295.5,157.5 295.5,161.5C 276.5,161.5 257.5,161.5 238.5,161.5C 238.5,166.167 238.5,170.833 238.5,175.5C 246.833,175.5 255.167,175.5 263.5,175.5C 261.023,200.596 253.357,223.929 240.5,245.5C 239.957,245.56 239.624,245.893 239.5,246.5C 245.988,247.817 252.322,247.817 258.5,246.5C 269.288,226.804 276.288,205.804 279.5,183.5C 280.612,181.401 281.279,179.067 281.5,176.5C 285.833,176.5 290.167,176.5 294.5,176.5C 294.667,191.837 294.5,207.17 294,222.5C 293.13,223.108 292.63,223.941 292.5,225C 293.322,227.434 293.656,229.934 293.5,232.5C 292.936,237.093 291.603,241.426 289.5,245.5C 288.662,245.842 288.328,246.508 288.5,247.5C 287.708,248.967 287.708,250.3 288.5,251.5C 296.023,249.835 303.69,248.502 311.5,247.5C 315.777,249.914 315.444,251.414 310.5,252C 285.997,252.168 261.663,252.668 237.5,253.5C 235.5,253.5 233.5,253.5 231.5,253.5C 231.5,216.5 231.5,179.5 231.5,142.5C 265.833,142.5 300.167,142.5 334.5,142.5C 334.5,178.833 334.5,215.167 334.5,251.5 Z"/></g>
<g><path style="opacity:1" fill="#5e4401" d="M 312.5,161.5 C 317.833,161.5 323.167,161.5 328.5,161.5C 328.819,166.363 328.486,171.03 327.5,175.5C 327.5,171.167 327.5,166.833 327.5,162.5C 322.305,162.821 317.305,162.487 312.5,161.5 Z"/></g>
<g><path style="opacity:1" fill="#0a0502" d="M 312.5,161.5 C 317.305,162.487 322.305,162.821 327.5,162.5C 327.5,166.833 327.5,171.167 327.5,175.5C 322.5,175.5 317.5,175.5 312.5,175.5C 312.667,190.504 312.5,205.504 312,220.5C 311.334,229.328 309.834,237.995 307.5,246.5C 301.31,246.823 295.31,246.49 289.5,245.5C 291.603,241.426 292.936,237.093 293.5,232.5C 294.314,230.369 294.814,228.036 295,225.5C 295.5,208.837 295.667,192.17 295.5,175.5C 290.167,175.5 284.833,175.5 279.5,175.5C 279.5,178.167 279.5,180.833 279.5,183.5C 276.288,205.804 269.288,226.804 258.5,246.5C 252.31,246.823 246.31,246.49 240.5,245.5C 253.357,223.929 261.023,200.596 263.5,175.5C 255.167,175.5 246.833,175.5 238.5,175.5C 238.5,170.833 238.5,166.167 238.5,161.5C 257.5,161.5 276.5,161.5 295.5,161.5C 295.5,157.5 295.5,153.5 295.5,149.5C 301.167,149.5 306.833,149.5 312.5,149.5C 312.5,153.5 312.5,157.5 312.5,161.5 Z"/></g>
<g><path style="opacity:1" fill="#e7c53d" d="M 293.5,232.5 C 293.656,229.934 293.322,227.434 292.5,225C 292.63,223.941 293.13,223.108 294,222.5C 294.5,207.17 294.667,191.837 294.5,176.5C 290.167,176.5 285.833,176.5 281.5,176.5C 281.279,179.067 280.612,181.401 279.5,183.5C 279.5,180.833 279.5,178.167 279.5,175.5C 284.833,175.5 290.167,175.5 295.5,175.5C 295.667,192.17 295.5,208.837 295,225.5C 294.814,228.036 294.314,230.369 293.5,232.5 Z"/></g>
<g><path style="opacity:1" fill="#624a01" d="M 48.5,228.5 C 48.5,228.167 48.5,227.833 48.5,227.5C 68.178,227.167 87.8446,227.5 107.5,228.5C 107.376,229.107 107.043,229.44 106.5,229.5C 87.3405,228.503 68.0072,228.17 48.5,228.5 Z"/></g>
<g><path style="opacity:1" fill="#604900" d="M 192.5,227.5 C 173.167,228.167 153.833,228.833 134.5,229.5C 133.957,229.44 133.624,229.107 133.5,228.5C 153.155,227.5 172.822,227.167 192.5,227.5 Z"/></g>
<g><path style="opacity:1" fill="#eecd46" d="M 48.5,228.5 C 68.0072,228.17 87.3405,228.503 106.5,229.5C 105.5,231.167 104.167,232.5 102.5,233.5C 102.67,232.178 102.337,231.011 101.5,230C 83.6619,229.832 65.9953,229.332 48.5,228.5 Z"/></g>
<g><path style="opacity:1" fill="#eecb3b" d="M 187.5,200.5 C 168.652,201.23 149.652,201.897 130.5,202.5C 130.5,205.833 130.5,209.167 130.5,212.5C 151.409,212.827 172.242,212.493 193,211.5C 194.416,217.715 194.916,224.048 194.5,230.5C 176.164,230.333 157.83,230.5 139.5,231C 141.074,231.353 142.741,232.02 144.5,233C 143.332,234.406 143.665,235.572 145.5,236.5C 147.423,237.308 149.423,237.808 151.5,238C 154.61,240.547 157.277,243.381 159.5,246.5C 149.792,242.781 141.458,237.114 134.5,229.5C 153.833,228.833 173.167,228.167 192.5,227.5C 192.5,222.833 192.5,218.167 192.5,213.5C 171.5,213.5 150.5,213.5 129.5,213.5C 129.5,209.167 129.5,204.833 129.5,200.5C 148.833,200.5 168.167,200.5 187.5,200.5 Z"/></g>
<g><path style="opacity:1" fill="#f3ce29" d="M 328.5,161.5 C 329.402,164.983 330.068,168.65 330.5,172.5C 330.43,173.772 330.097,174.938 329.5,176C 324.177,176.499 318.844,176.666 313.5,176.5C 313.748,194.18 313.415,211.847 312.5,229.5C 312.401,232.999 313.068,236.332 314.5,239.5C 312.022,240.722 311.022,242.722 311.5,245.5C 313.783,245.608 315.783,246.441 317.5,248C 316.027,248.71 315.36,249.876 315.5,251.5C 321.833,251.5 328.167,251.5 334.5,251.5C 302.517,253.493 270.184,254.159 237.5,253.5C 261.663,252.668 285.997,252.168 310.5,252C 315.444,251.414 315.777,249.914 311.5,247.5C 303.69,248.502 296.023,249.835 288.5,251.5C 287.708,250.3 287.708,248.967 288.5,247.5C 295.022,247.823 301.355,247.49 307.5,246.5C 309.834,237.995 311.334,229.328 312,220.5C 312.5,205.504 312.667,190.504 312.5,175.5C 317.5,175.5 322.5,175.5 327.5,175.5C 328.486,171.03 328.819,166.363 328.5,161.5 Z"/></g>
<g><path style="opacity:1" fill="#877317" d="M 240.5,245.5 C 246.31,246.49 252.31,246.823 258.5,246.5C 252.322,247.817 245.988,247.817 239.5,246.5C 239.624,245.893 239.957,245.56 240.5,245.5 Z"/></g>
<g><path style="opacity:1" fill="#8a741f" d="M 289.5,245.5 C 295.31,246.49 301.31,246.823 307.5,246.5C 301.355,247.49 295.022,247.823 288.5,247.5C 288.328,246.508 288.662,245.842 289.5,245.5 Z"/></g>
<g><path style="opacity:1" fill="#e8c635" d="M 160.5,246.5 C 171.584,248.617 182.584,250.784 193.5,253C 194.624,253.839 195.291,255.006 195.5,256.5C 195.16,258.512 194.827,260.512 194.5,262.5C 193.041,262.433 191.708,262.766 190.5,263.5C 191.807,260.886 193.14,258.22 194.5,255.5C 182.553,254.348 171.22,251.348 160.5,246.5 Z"/></g>
<g><path style="opacity:1" fill="#e4c638" d="M 85.5,245.5 C 81.4872,247.833 77.1539,249.666 72.5,251C 65.5295,252.681 58.5295,254.181 51.5,255.5C 51.0057,257.026 50.339,258.359 49.5,259.5C 49.6427,257.738 49.3094,256.071 48.5,254.5C 49,254.167 49.5,253.833 50,253.5C 54.461,252.753 58.961,252.253 63.5,252C 70.7679,249.518 78.1012,247.351 85.5,245.5 Z"/></g>
<g><path style="opacity:1" fill="#eecb28" d="M 105.5,252.5 C 103.862,256.157 102.028,259.157 100,261.5C 97.6667,261.167 95.3333,260.833 93,260.5C 92.4236,263.124 91.0902,263.791 89,262.5C 88,263.167 87,263.833 86,264.5C 85.5439,265.744 86.0439,266.577 87.5,267C 84.6408,267.553 81.8075,267.386 79,266.5C 72.5923,268.181 66.0923,269.681 59.5,271C 54.9796,271.814 50.6463,271.647 46.5,270.5C 67.7314,269.309 87.3981,263.309 105.5,252.5 Z"/></g>
<g><path style="opacity:1" fill="#eccc3d" d="M 216.5,268.5 C 261.803,269.485 307.137,269.818 352.5,269.5C 307.67,270.499 262.67,270.832 217.5,270.5C 216.662,270.158 216.328,269.492 216.5,268.5 Z"/></g>
</svg>
