<?xml version="1.0" encoding="UTF-8"?>
<!DOCTYPE svg PUBLIC "-//W3C//DTD SVG 1.1//EN" "http://www.w3.org/Graphics/SVG/1.1/DTD/svg11.dtd">
<svg xmlns="http://www.w3.org/2000/svg" version="1.1" width="225px" height="225px" style="shape-rendering:geometricPrecision; text-rendering:geometricPrecision; image-rendering:optimizeQuality; fill-rule:evenodd; clip-rule:evenodd" xmlns:xlink="http://www.w3.org/1999/xlink">
<g><path style="opacity:1" fill="#fefdfd" d="M -0.5,-0.5 C 74.5,-0.5 149.5,-0.5 224.5,-0.5C 224.5,74.5 224.5,149.5 224.5,224.5C 149.5,224.5 74.5,224.5 -0.5,224.5C -0.5,149.5 -0.5,74.5 -0.5,-0.5 Z"/></g>
<g><path style="opacity:1" fill="#c7122c" d="M 101.5,42.5 C 103.136,43.7489 104.303,45.4156 105,47.5C 106.794,53.0526 108.127,58.7192 109,64.5C 109.875,81.5319 109.542,98.5319 108,115.5C 97.9242,102.019 89.9242,87.3522 84,71.5C 79.6606,55.4919 85.4939,45.8252 101.5,42.5 Z"/></g>
<g><path style="opacity:1" fill="#c7112c" d="M 121.5,42.5 C 138.267,45.3618 144.434,55.0285 140,71.5C 134.076,87.3522 126.076,102.019 116,115.5C 113.486,93.7163 114.153,72.0496 118,50.5C 118.906,47.6902 120.073,45.0236 121.5,42.5 Z"/></g>
<g><path style="opacity:1" fill="#c7132c" d="M 65.5,60.5 C 67.371,60.8588 68.871,61.8588 70,63.5C 82.5935,80.3384 93.4268,98.3384 102.5,117.5C 86.7871,111.869 72.6204,103.202 60,91.5C 56.8956,86.5598 55.8956,81.2264 57,75.5C 59.2283,70.1178 62.0616,65.1178 65.5,60.5 Z"/></g>
<g><path style="opacity:1" fill="#c7122c" d="M 156.5,60.5 C 167.511,68.7118 170.011,79.0452 164,91.5C 151.38,103.202 137.213,111.869 121.5,117.5C 131.21,97.1612 142.877,78.1612 156.5,60.5 Z"/></g>
<g><path style="opacity:1" fill="#c7132c" d="M 47.5,93.5 C 65.441,102.277 82.7744,112.11 99.5,123C 87.5,123.667 75.5,123.667 63.5,123C 50.7598,117.362 45.4264,107.529 47.5,93.5 Z"/></g>
<g><path style="opacity:1" fill="#c7122c" d="M 174.5,93.5 C 178.801,107.731 173.801,117.564 159.5,123C 147.833,123.667 136.167,123.667 124.5,123C 141.065,112.888 157.732,103.055 174.5,93.5 Z"/></g>
<g><path style="opacity:1" fill="#c7162c" d="M 70.5,127.5 C 79.8393,127.334 89.1726,127.5 98.5,128C 91.556,133.888 83.7227,138.055 75,140.5C 68.1701,139.169 63.0034,135.502 59.5,129.5C 63.3125,128.833 66.9792,128.166 70.5,127.5 Z"/></g>
<g><path style="opacity:1" fill="#c7122b" d="M 125.5,128.5 C 138.361,127.522 151.361,127.856 164.5,129.5C 158.924,139.464 150.924,142.298 140.5,138C 135.472,134.823 130.472,131.656 125.5,128.5 Z"/></g>
<g><path style="opacity:1" fill="#cac9c8" d="M 47.5,153.5 C 47.5,160.5 47.5,167.5 47.5,174.5C 48.8333,174.5 50.1667,174.5 51.5,174.5C 51.1936,171.615 51.5269,168.948 52.5,166.5C 52.5,169.5 52.5,172.5 52.5,175.5C 50.5,175.5 48.5,175.5 46.5,175.5C 46.175,167.981 46.5084,160.648 47.5,153.5 Z"/></g>
<g><path style="opacity:1" fill="#1e1614" d="M 47.5,153.5 C 48.8333,153.5 50.1667,153.5 51.5,153.5C 51.5,156.5 51.5,159.5 51.5,162.5C 54.8333,162.5 58.1667,162.5 61.5,162.5C 61.5,159.5 61.5,156.5 61.5,153.5C 62.8333,153.5 64.1667,153.5 65.5,153.5C 65.5,160.5 65.5,167.5 65.5,174.5C 64.1667,174.5 62.8333,174.5 61.5,174.5C 61.5,171.833 61.5,169.167 61.5,166.5C 58.5,166.5 55.5,166.5 52.5,166.5C 51.5269,168.948 51.1936,171.615 51.5,174.5C 50.1667,174.5 48.8333,174.5 47.5,174.5C 47.5,167.5 47.5,160.5 47.5,153.5 Z"/></g>
<g><path style="opacity:1" fill="#817c7b" d="M 65.5,153.5 C 66.4916,160.648 66.825,167.981 66.5,175.5C 64.5853,175.784 62.9187,175.451 61.5,174.5C 62.8333,174.5 64.1667,174.5 65.5,174.5C 65.5,167.5 65.5,160.5 65.5,153.5 Z"/></g>
<g><path style="opacity:1" fill="#1e1614" d="M 72.5,153.5 C 73.8333,153.5 75.1667,153.5 76.5,153.5C 76.3341,158.511 76.5007,163.511 77,168.5C 79.7065,171.978 82.7065,172.311 86,169.5C 86.4994,164.177 86.666,158.844 86.5,153.5C 87.8333,153.5 89.1667,153.5 90.5,153.5C 90.6661,159.176 90.4994,164.843 90,170.5C 88.127,174.027 85.127,175.693 81,175.5C 77.0891,175.207 74.4225,173.207 73,169.5C 72.5006,164.177 72.334,158.844 72.5,153.5 Z"/></g>
<g><path style="opacity:1" fill="#231a19" d="M 102.5,153.5 C 104.167,153.5 105.833,153.5 107.5,153.5C 109.673,160.846 112.673,167.846 116.5,174.5C 114.955,175.452 113.288,175.785 111.5,175.5C 111.32,171.588 109.153,169.921 105,170.5C 101.24,170.108 98.7399,171.608 97.5,175C 96.0563,175.781 94.723,175.614 93.5,174.5C 96.7878,167.595 99.7878,160.595 102.5,153.5 Z"/></g>
<g><path style="opacity:1" fill="#201816" d="M 115.5,153.5 C 117.144,153.286 118.644,153.62 120,154.5C 121.486,158.776 122.819,163.109 124,167.5C 126.05,163.357 127.716,159.024 129,154.5C 130.356,153.62 131.856,153.286 133.5,153.5C 134.487,158.296 135.987,162.963 138,167.5C 139.507,163.157 141.007,158.824 142.5,154.5C 143.689,153.571 145.022,153.238 146.5,153.5C 144.84,160.314 142.673,166.981 140,173.5C 138.951,175.107 137.451,175.773 135.5,175.5C 134.897,170.525 133.397,165.859 131,161.5C 128.628,165.905 127.128,170.572 126.5,175.5C 125.022,175.762 123.689,175.429 122.5,174.5C 119.957,167.539 117.624,160.539 115.5,153.5 Z"/></g>
<g><path style="opacity:1" fill="#241b19" d="M 151.5,153.5 C 156.5,153.5 161.5,153.5 166.5,153.5C 166.5,154.833 166.5,156.167 166.5,157.5C 162.833,157.5 159.167,157.5 155.5,157.5C 155.5,158.833 155.5,160.167 155.5,161.5C 158.167,161.5 160.833,161.5 163.5,161.5C 163.5,162.833 163.5,164.167 163.5,165.5C 160.833,165.5 158.167,165.5 155.5,165.5C 155.5,167.5 155.5,169.5 155.5,171.5C 159.5,171.5 163.5,171.5 167.5,171.5C 167.5,172.5 167.5,173.5 167.5,174.5C 162.167,174.5 156.833,174.5 151.5,174.5C 151.5,167.5 151.5,160.5 151.5,153.5 Z"/></g>
<g><path style="opacity:1" fill="#1e1512" d="M 176.5,153.5 C 176.5,160.5 176.5,167.5 176.5,174.5C 175.167,174.5 173.833,174.5 172.5,174.5C 172.5,167.5 172.5,160.5 172.5,153.5C 173.833,153.5 175.167,153.5 176.5,153.5 Z"/></g>
<g><path style="opacity:1" fill="#9f9c9c" d="M 176.5,153.5 C 177.492,160.648 177.825,167.981 177.5,175.5C 175.585,175.784 173.919,175.451 172.5,174.5C 173.833,174.5 175.167,174.5 176.5,174.5C 176.5,167.5 176.5,160.5 176.5,153.5 Z"/></g>
<g><path style="opacity:1" fill="#f0efef" d="M 104.5,159.5 C 106.293,161.426 107.293,163.759 107.5,166.5C 105.473,166.662 103.473,166.495 101.5,166C 102.406,163.779 103.406,161.612 104.5,159.5 Z"/></g>
<g><path style="opacity:1" fill="#7a7674" d="M 151.5,153.5 C 151.5,160.5 151.5,167.5 151.5,174.5C 156.833,174.5 162.167,174.5 167.5,174.5C 162.025,175.489 156.358,175.822 150.5,175.5C 150.175,167.981 150.508,160.648 151.5,153.5 Z"/></g>
</svg>
